<?xml version="1.0" encoding="iso-8859-1"?>
<!-- Generator: Adobe Illustrator 21.0.0, SVG Export Plug-In . SVG Version: 6.00 Build 0)  -->
<svg version="1.1" id="&#x5716;&#x5C64;_1" xmlns="http://www.w3.org/2000/svg" xmlns:xlink="http://www.w3.org/1999/xlink" x="0px"
	 y="0px" viewBox="0 0 330.801 96.913" style="enable-background:new 0 0 330.801 96.913;" xml:space="preserve">
<g>
	<g>
		<path style="fill:#6A6969;" d="M122.852,67.862h4.56v1.824h18.013v-1.824h4.561v13.68h-4.561v-1.824h-18.013v0.456
			c2.127,1.066,4.254,2.359,6.384,3.876c-1.065,1.517-1.674,2.43-1.824,2.736h7.297l3.648-6.384l2.052,1.14l-3.42,5.244h13.909
			v2.508h-38.991v-2.508h14.366c-1.522-2.131-2.661-3.951-3.421-5.472h-4.56V67.862z M118.52,63.529h35.342v2.736H118.52V63.529z
			 M134.253,34.344h4.333v23.029h3.192v-4.104h-2.052v-2.052h2.052v-3.192h-2.052v-2.052h2.052v-3.42h-2.052V40.5h2.052v-5.016
			h3.877V40.5h2.508v2.053h-2.508v3.42h2.28v2.052h-2.28v3.192h2.508v2.052h-2.508v4.104h3.648V37.307h4.104v24.625h-4.104v-2.28
			h-25.766v2.28h-4.104V37.536h4.104v19.837h3.192v-4.104h-2.28v-2.052h2.28v-3.192h-2.508v-2.052h2.508V42.78h-2.28v-2.052h2.28
			v-5.244h3.649v5.244h2.736v2.052h-2.736v3.193h2.28v2.052h-2.28v3.192h2.508v2.052h-2.508v4.104h3.876V34.344z M145.425,72.194
			h-18.013v5.017h18.013V72.194z"/>
		<path style="fill:#6A6969;" d="M186.24,49.621l0.456,0.228l-6.384,28.502c0.456,0.763,1.824,2.508,4.104,5.245
			c-0.456,1.973-1.219,3.798-2.28,5.472c-3.802-6.384-6.463-12.462-7.981-18.241h0.228c0.15,0.307,0.456,0.763,0.912,1.368
			c1.369,1.825,2.281,2.964,2.737,3.42C182.592,61.175,185.328,52.51,186.24,49.621z M174.156,49.848h0.228
			c2.886,2.28,5.319,4.333,7.297,6.156c-0.456,2.434-1.066,4.104-1.824,5.016C177.269,57.373,175.371,53.65,174.156,49.848z
			 M177.348,35.484v-0.228c2.43,1.674,4.788,3.574,7.068,5.7c-0.456,2.736-1.065,4.561-1.824,5.473
			C180.768,44.148,179.019,40.5,177.348,35.484z M185.328,45.516v-2.281h11.401v-9.576h4.56v9.576h10.944v2.281h-10.944v8.664h4.56
			v-3.648h4.56V76.07c0.15,3.499-1.674,5.701-5.472,6.613c-0.307-0.605-0.837-0.759-1.596-0.456l-2.052,0.456v8.208h-4.56v-34.43
			h-4.561v25.081h-4.56V50.989h4.56v3.192h4.561v-8.664H185.328z M205.85,77.438V56.461h-4.56v24.854
			C204.785,80.403,206.306,79.113,205.85,77.438z"/>
		<path style="fill:#6A6969;" d="M235.492,34.571h4.56v2.28h25.766V34.8h4.787v54.723h-4.787v-2.28h-25.766v2.28h-4.56V34.571z
			 M240.052,39.132v45.831h25.766V39.132H240.052z M258.52,40.044v5.701h3.876c-1.218-1.368-2.13-3.114-2.736-5.244h0.228
			c1.974,0.61,3.495,1.368,4.56,2.28c-0.455,1.066-0.991,2.052-1.596,2.964h2.052v2.28h-6.386c-0.152,2.89-0.227,6.463-0.227,10.717
			c0,3.955,0.149,6.919,0.455,8.893c1.215-2.885,1.746-8.358,1.596-16.417h4.105c-0.154,0.61-0.228,1.219-0.228,1.824
			c-0.152,8.362-1.675,14.671-4.56,18.926c0.606,1.675,1.518,3.27,2.736,4.788l1.824-7.525h0.457l-0.684,8.664l0.912,0.912v5.017
			c-3.346-1.518-6.008-4.407-7.981-8.665c-2.736,2.736-5.929,5.472-9.577,8.209h-2.279c4.406-3.039,8.129-6.46,11.173-10.261
			c-1.219-4.104-1.824-12.462-1.824-25.081H241.42v-2.28h12.997v-5.701H258.52z M253.733,71.282l0.227,0.228
			c-1.367,3.499-5.397,6.384-12.084,8.664c0.759-1.973,0.605-3.951-0.456-5.928C246.436,75.158,250.54,74.171,253.733,71.282z
			 M242.332,51.445h3.876v2.28h2.508v-2.28h3.876v19.153h-3.876V68.09h-2.508v2.736h-3.876V51.445z M248.716,56.005h-2.508v9.805
			h2.508V56.005z"/>
		<path style="fill:#6A6969;" d="M298.651,35.256v2.28h3.876v-1.596h4.105c0,5.17-0.457,8.818-1.369,10.945
			c-0.763,2.13-2.587,4.486-5.472,7.069c4.105,1.218,6.157,3.648,6.157,7.296v1.824c1.061-1.061,2.279-2.811,3.648-5.244
			c-1.066-1.517-2.052-3.57-2.964-6.157c-0.306,0.763-0.763,1.447-1.369,2.052h-1.367c3.039-4.104,4.406-10.261,4.103-18.469h4.562
			c-0.154,1.065-0.307,2.205-0.457,3.42h2.052v-1.368h4.103c-0.152,8.059-2.585,15.202-7.296,21.433h13.909v2.508h-14.364v-1.596
			c-1.675,2.28-3.193,4.029-4.56,5.244V76.07c0,2.434-1.448,4.56-4.333,6.384c-0.763-0.302-1.293-0.377-1.596-0.228l-1.369,0.684
			v7.297h-3.875V35.256H298.651z M298.651,39.816v13.68c2.736-1.368,4.026-5.928,3.876-13.68H298.651z M298.651,54.637v27.59
			c2.281-1.517,3.421-3.342,3.421-5.472v-13.91C302.072,58.439,300.932,55.702,298.651,54.637z M308.456,70.826h4.332
			c-0.306,5.779-2.814,11.173-7.525,16.189h-1.824C306.632,84.581,308.302,79.188,308.456,70.826z M309.596,46.429
			c-0.307,0.306-0.609,0.837-0.912,1.596c-0.912,1.522-1.446,2.434-1.597,2.736c1.672,1.522,3.039,2.736,4.105,3.649
			c0.606-1.062,0.987-2.127,1.14-3.193C310.964,49.392,310.052,47.797,309.596,46.429z M329.206,66.038v2.28h-9.349v15.733
			c0.149,2.127-1.597,3.951-5.245,5.472c-0.763-0.456-1.446-0.534-2.051-0.228l-2.509,0.912l-0.228-0.456
			c4.254-1.824,6.232-3.499,5.929-5.016V68.318h-8.665v-2.28H329.206z M314.157,40.956h-2.736c-0.457,1.522-0.912,3.043-1.369,4.561
			c1.369,0.912,2.43,1.596,3.193,2.052C313.7,44.985,314.003,42.78,314.157,40.956z M319.172,34.344h0.457
			c0.149,1.824,0.303,3.192,0.455,4.104h5.474v-2.052h4.103c-0.609,5.928-2.587,10.414-5.927,13.453
			c2.429,3.346,4.787,5.551,7.068,6.612c-1.675,1.978-2.052,4.486-1.14,7.525C321.91,57.145,318.411,47.265,319.172,34.344z
			 M325.329,40.728h-5.017c0.606,3.043,1.518,5.701,2.736,7.981C324.264,46.582,325.023,43.92,325.329,40.728z M322.137,70.142
			l0.457-0.228c1.061,4.867,3.569,8.59,7.525,11.173c-1.521,1.522-1.903,3.723-1.14,6.612
			C324.873,84.507,322.593,78.657,322.137,70.142z"/>
	</g>
	<g>
		<path style="fill:#AAC646;" d="M145.717,16.503v3.202h3.957v1.298h-3.957v5.589h-1.42V15.203h5.513v1.299H145.717z"/>
		<path style="fill:#AAC646;" d="M156.003,15.203h6.117v1.299h-4.697v3.187h4.562v1.298h-4.562v4.304h4.697v1.299h-6.117V15.203z"/>
		<path style="fill:#AAC646;" d="M168.268,14.66l8.549,8.957v-8.413h1.42V27.06l-8.549-8.956v8.488h-1.42V14.66z"/>
		<path style="fill:#AAC646;" d="M195.167,20.852v0.453c0,3.127-2.205,5.528-5.392,5.528c-3.187,0-5.754-2.749-5.754-5.906
			c0-3.278,2.628-5.965,5.905-5.965c1.767,0,3.519,0.801,4.636,2.205l-0.997,0.951c-0.815-1.117-2.19-1.857-3.579-1.857
			c-2.552,0-4.546,2.069-4.546,4.621c0,2.386,1.963,4.652,4.425,4.652c1.767,0,3.67-1.525,3.73-3.383h-2.945v-1.299H195.167z"/>
		<path style="fill:#AAC646;" d="M211.419,26.592H210V15.203h1.632c3.504,0,4.591,1.209,4.591,3.293
			c0,2.401-1.828,3.323-3.987,3.323h-0.816V26.592z M211.419,20.55h0.453c1.45,0,3.02-0.271,3.02-2.084
			c0-1.782-1.691-1.993-3.096-1.993h-0.378V20.55z"/>
		<path style="fill:#AAC646;" d="M222.007,15.203h6.117v1.299h-4.697v3.187h4.562v1.298h-4.562v4.304h4.697v1.299h-6.117V15.203z"/>
		<path style="fill:#AAC646;" d="M235.783,26.592h-1.42V15.203h1.42V26.592z"/>
		<path style="fill:#AAC646;" d="M261.716,20.852v0.453c0,3.127-2.206,5.528-5.392,5.528c-3.187,0-5.755-2.749-5.755-5.906
			c0-3.278,2.628-5.965,5.906-5.965c1.767,0,3.519,0.801,4.636,2.205l-0.997,0.951c-0.816-1.117-2.19-1.857-3.579-1.857
			c-2.552,0-4.546,2.069-4.546,4.621c0,2.386,1.963,4.652,4.425,4.652c1.767,0,3.67-1.525,3.73-3.383h-2.946v-1.299H261.716z"/>
		<path style="fill:#AAC646;" d="M269.071,25.292h3.458v1.299h-4.878V15.203h1.419V25.292z"/>
		<path style="fill:#AAC646;" d="M289.128,20.897c0,3.383-2.673,5.936-5.965,5.936c-3.293,0-5.966-2.553-5.966-5.936
			c0-3.262,2.703-5.935,5.966-5.935C286.425,14.962,289.128,17.635,289.128,20.897z M287.709,20.897
			c0-2.507-1.873-4.606-4.546-4.606c-2.674,0-4.546,2.099-4.546,4.606c0,2.598,2.084,4.607,4.546,4.607
			C285.625,25.504,287.709,23.496,287.709,20.897z"/>
		<path style="fill:#AAC646;" d="M294.915,15.203h1.389c2.144,0,4.169,0.559,4.169,3.127c0,0.831-0.454,1.798-1.224,2.159v0.03
			c1.344,0.242,2.281,1.556,2.281,2.885c0,2.281-1.949,3.187-3.957,3.187h-2.658V15.203z M296.334,20.248h0.363
			c1.343,0,2.446-0.272,2.446-1.903c0-1.601-1.087-1.873-2.416-1.873h-0.393V20.248z M296.334,25.323h1.087
			c1.314,0,2.689-0.392,2.689-2.009c0-1.601-1.632-1.933-2.9-1.933h-0.876V25.323z"/>
		<path style="fill:#AAC646;" d="M309.263,23.737l-1.298,2.855h-1.525l5.436-11.871l5.438,11.871h-1.525l-1.3-2.855H309.263z
			 M311.876,17.832l-2.024,4.606h4.047L311.876,17.832z"/>
		<path style="fill:#AAC646;" d="M324.216,25.292h3.459v1.299h-4.879V15.203h1.42V25.292z"/>
	</g>
</g>
<g>
	<path style="fill:#AAC646;" d="M56.972,42.794c-0.007-1.146-0.013-2.135-0.636-3.095c-1.336-2.055-4.197-2.037-4.756-2.016
		c-0.771,0.031-2.701,0.277-3.967,1.866c-1.167,1.465-1.05,3.153-0.948,4.405h0c0.001,0.009,0.002,0.022,0.003,0.031
		c0.001,0.011,0.002,0.023,0.003,0.034h0c0.052,0.63,0.179,1.924,0.969,3.269c0.769,1.309,1.803,2.098,2.535,2.529l0.167,0.076
		c0.502,0.17,1.009,0.255,1.503,0.255c0.403,0,0.798-0.057,1.174-0.17c1.624-0.487,2.395-1.838,2.906-2.734
		c1.063-1.862,1.052-3.627,1.048-4.381L56.972,42.794z M54.381,46.365c-0.436,0.764-0.93,1.629-1.873,1.912
		c-0.571,0.171-1.124,0.08-1.513-0.039c-0.545-0.334-1.276-0.916-1.824-1.85c-0.61-1.038-0.687-1.987-0.729-2.497l-0.001-0.016
		c-0.087-1.068-0.186-2.279,0.562-3.218c0.833-1.045,2.239-1.181,2.652-1.198c0.241-0.011,2.365-0.064,3.191,1.208
		c0.325,0.501,0.343,1.047,0.349,2.138l0,0.07C55.2,43.538,55.208,44.917,54.381,46.365z"/>
	<path style="fill:#AAC646;" d="M35.401,9.382c-0.514,2.035,0.044,4.282,1.658,5.85c1.616,1.569,3.879,2.061,5.899,1.489
		c0.514-2.038-0.044-4.285-1.66-5.854C39.684,9.299,37.419,8.806,35.401,9.382z"/>
	<path style="fill:#AAC646;" d="M25.405,51.086c-0.237-2.085-1.553-3.991-3.616-4.888c-2.066-0.898-4.356-0.559-6.044,0.69
		c0.239,2.087,1.554,3.994,3.619,4.891C21.427,52.676,23.719,52.338,25.405,51.086z"/>
	<path style="fill:#AAC646;" d="M26.713,66.684c1.569-1.616,2.06-3.879,1.489-5.899c-2.037-0.514-4.285,0.044-5.854,1.66
		c-1.568,1.614-2.061,3.879-1.485,5.897C22.898,68.855,25.146,68.298,26.713,66.684z"/>
	<path style="fill:#AAC646;" d="M19.174,17.878c-1.076,1.802-1.186,4.115-0.089,6.08c1.098,1.966,3.125,3.086,5.224,3.118
		c1.076-1.805,1.187-4.118,0.089-6.084C23.301,19.027,21.273,17.905,19.174,17.878z"/>
	<path style="fill:#AAC646;" d="M5.905,36.642C3.744,36.014,1.513,36.64,0,38.095c0.5,2.038,2.046,3.762,4.207,4.39
		c2.163,0.629,4.392,0.002,5.908-1.45C9.614,38.994,8.068,37.271,5.905,36.642z"/>
	<path style="fill:#AAC646;" d="M62.279,10.867c-1.616,1.569-2.173,3.817-1.66,5.854c2.02,0.572,4.283,0.08,5.899-1.489
		c1.614-1.568,2.172-3.815,1.658-5.85C66.158,8.806,63.893,9.299,62.279,10.867z"/>
	<path style="fill:#AAC646;" d="M81.789,46.198c-2.064,0.897-3.379,2.803-3.616,4.888c1.685,1.251,3.978,1.59,6.042,0.693
		c2.066-0.898,3.381-2.804,3.619-4.891C86.145,45.64,83.854,45.301,81.789,46.198z"/>
	<path style="fill:#AAC646;" d="M82.714,68.342c0.576-2.019,0.083-4.283-1.484-5.897c-1.569-1.616-3.817-2.173-5.854-1.66
		c-0.572,2.02-0.08,4.283,1.489,5.899C78.432,68.298,80.679,68.855,82.714,68.342z"/>
	<path style="fill:#AAC646;" d="M79.179,20.991c-1.098,1.966-0.988,4.28,0.089,6.084c2.099-0.032,4.126-1.152,5.224-3.118
		c1.097-1.965,0.987-4.278-0.089-6.08C82.304,17.905,80.276,19.027,79.179,20.991z"/>
	<path style="fill:#AAC646;" d="M97.672,36.642c-2.163,0.629-3.709,2.353-4.21,4.393c1.516,1.452,3.745,2.079,5.908,1.45
		c2.161-0.628,3.707-2.352,4.207-4.39C102.064,36.64,99.833,36.014,97.672,36.642z"/>
	<path style="fill:#AAC646;" d="M51.789,2.175c13.418,0,26.162,5.817,34.965,15.958l1.642-1.426C79.18,6.09,65.837,0,51.789,0
		C37.741,0,24.397,6.09,15.181,16.708l1.642,1.426C25.627,7.991,38.371,2.175,51.789,2.175z"/>
	<path style="fill:#AAC646;" d="M78.875,54.779c-2.748,0.326-5.401,0.87-7.895,1.609c-0.217,0.058-0.441,0.123-0.658,0.195
		c1.249-3.349,4.903-10.171,14.58-13.322c4.082-1.33,6.923-3.669,8.444-6.951c2.56-5.524,0.51-11.909-0.033-13.398l-2.032,0.828
		c0.486,1.374,2.234,7.012,0.071,11.661c-1.257,2.701-3.656,4.645-7.129,5.776c-12.44,4.051-15.8,13.726-16.484,16.288
		c-0.002,0.001-0.004,0.001-0.006,0.002c-0.051,0.022-0.101,0.036-0.152,0.058c-0.848,0.312-1.588,0.609-2.262,0.921
		c-2.407,1.087-4.516,2.624-6.271,4.567c-0.609,0.689-1.109,1.348-1.537,2.03c-0.239,0.333-0.449,0.653-0.652,1.008
		c-0.043,0.073-0.087,0.145-0.131,0.225l-0.072-0.036c-0.507-2.356-1.53-5.43-3.552-8.649c2.146-3.037,5.299-6.148,9.946-8.772
		c4.183-2.363,7.445-5.734,9.584-9.606c0,0,0,0,0-0.001c1.973-0.09,7.547-0.651,10.959-4.085c1.763-1.776,2.671-4.034,2.701-6.717
		l-2.191,0.034c-0.034,2.089-0.709,3.771-2.057,5.132c-2.338,2.36-6.106,3.109-8.316,3.348c2.086-4.965,2.397-10.545,0.556-15.785
		c-0.732-2.081-1.762-4.169-3.067-6.22l-1.834,1.196c1.211,1.899,2.16,3.828,2.835,5.749c3.277,9.315-1.037,19.849-10.251,25.047
		c-4.64,2.617-7.902,5.698-10.178,8.757c-2.291-3.059-5.546-6.14-10.186-8.757c-9.214-5.198-13.52-15.732-10.251-25.047
		c0.674-1.921,1.631-3.85,2.842-5.749l-1.834-1.196c-1.312,2.052-2.342,4.139-3.074,6.22c-1.841,5.239-1.53,10.82,0.556,15.785
		c-2.21-0.24-5.976-0.989-8.313-3.348c-1.348-1.362-2.023-3.043-2.057-5.132l-2.191-0.034c0.031,2.683,0.938,4.941,2.701,6.717
		c3.411,3.433,8.982,3.995,10.956,4.085c0,0,0,0,0,0.001c2.139,3.871,5.401,7.243,9.591,9.606c4.647,2.617,7.801,5.735,9.939,8.765
		c-2.023,3.219-3.038,6.3-3.552,8.656l-0.073,0.036c-0.036-0.08-0.087-0.152-0.13-0.225c-0.203-0.355-0.413-0.674-0.652-1.008
		c-0.428-0.681-0.928-1.341-1.537-2.03c-1.754-1.943-3.864-3.48-6.271-4.567c-0.674-0.312-1.414-0.609-2.262-0.921
		c-0.051-0.022-0.102-0.036-0.152-0.058c-0.689-2.566-4.052-12.237-16.485-16.29c-3.48-1.131-5.872-3.074-7.134-5.778
		c-2.16-4.647-0.413-10.287,0.072-11.657l-2.03-0.834c-0.544,1.494-2.595,7.88-0.036,13.404c1.522,3.277,4.364,5.618,8.446,6.945
		c9.671,3.154,13.332,9.975,14.579,13.324c-0.217-0.072-0.442-0.138-0.66-0.196c-2.494-0.74-5.147-1.283-7.895-1.609
		c-13.129-1.544-14.695-7.511-14.876-9.011L7.62,45.695c0.109,1.537,1.247,8.09,12.926,10.62c0.464,0.102,0.95,0.196,1.464,0.29
		c-3.632,0.812-7.909,2.233-10.911,4.683l1.428,1.667c5.024-4.067,14.456-5.039,16.377-5.198v-0.058
		c0.058,0.014,0.109,0.022,0.159,0.036l0.123-0.051l0.094,0.094c2.806,0.631,5.517,1.53,8.069,2.668
		c4.096,1.834,7.206,5.169,8.75,9.388l0.036,0.152v0.007l0.058,0.138c1.153,3.349,1.182,6.909,0.08,10.301
		c-1.841,5.727-5.038,9.649-7.402,11.926l-0.116,0.094c-0.109,0.102-0.21,0.203-0.312,0.297l-2.063,1.621
		c4.898,1.654,10.093,2.54,15.41,2.54c5.315,0,10.509-0.885,15.405-2.537l-2.066-1.624c-0.101-0.094-0.203-0.196-0.312-0.297
		l-0.116-0.094c-2.356-2.277-5.553-6.199-7.402-11.926c-1.095-3.393-1.066-6.952,0.08-10.301l0.058-0.138v-0.007l0.043-0.152
		c1.537-4.22,4.647-7.554,8.743-9.388c2.552-1.138,5.27-2.037,8.069-2.668l0.101-0.094l0.123,0.051
		c0.051-0.014,0.102-0.022,0.16-0.036c0.001,0,0.001,0,0.002,0l-0.003,0.056c1.916,0.159,11.351,1.132,16.376,5.198l1.427-1.663
		c-2.999-2.447-7.274-3.869-10.908-4.686c0.505-0.094,0.996-0.188,1.458-0.289c11.679-2.53,12.824-9.083,12.926-10.62l-2.204,0.072
		C93.57,47.268,92.004,53.235,78.875,54.779z M51.791,59.651c2.059,3.603,2.798,6.902,3.052,8.903
		c-0.022,0.065-0.051,0.13-0.08,0.203c0,0.007-0.007,0.007-0.007,0.007c-0.594,0.972-2.943,4.937-2.943,6.96
		c0-2.218-2.806-6.742-3.066-7.148c-0.007-0.022-0.014-0.029-0.014-0.029c0-0.007-0.007-0.014-0.007-0.021
		C48.993,66.523,49.739,63.232,51.791,59.651z"/>
	<path style="fill:#AAC646;" d="M9.874,68.104l-1.972,0.928c5.073,10.802,13.92,19.161,24.517,23.803l1.957-1.538
		C23.775,86.969,14.891,78.789,9.874,68.104z"/>
	<path style="fill:#AAC646;" d="M69.199,91.298l1.959,1.539c10.628-4.655,19.496-13.051,24.565-23.907l-1.972-0.921
		C88.739,78.749,79.834,86.96,69.199,91.298z"/>
</g>
</svg>
